<?xml version="1.0" encoding="UTF-8" standalone="no"?>
<svg
   xmlns:dc="http://purl.org/dc/elements/1.1/"
   xmlns:cc="http://creativecommons.org/ns#"
   xmlns:rdf="http://www.w3.org/1999/02/22-rdf-syntax-ns#"
   xmlns:svg="http://www.w3.org/2000/svg"
   xmlns="http://www.w3.org/2000/svg"
   xmlns:sodipodi="http://sodipodi.sourceforge.net/DTD/sodipodi-0.dtd"
   xmlns:inkscape="http://www.inkscape.org/namespaces/inkscape"
   width="1901"
   height="300"
   viewBox="0 0 502.97292 79.374999"
   version="1.1"
   id="svg1053"
   inkscape:version="1.0.1 (3bc2e813f5, 2020-09-07)"
   sodipodi:docname="femtoscope.svg">
  <defs
     id="defs1047" />
  <sodipodi:namedview
     id="base"
     pagecolor="#ffffff"
     bordercolor="#666666"
     borderopacity="1.0"
     inkscape:pageopacity="0.0"
     inkscape:pageshadow="2"
     inkscape:zoom="0.49497475"
     inkscape:cx="528.31712"
     inkscape:cy="407.21625"
     inkscape:document-units="mm"
     inkscape:current-layer="layer1"
     inkscape:document-rotation="0"
     showgrid="false"
     units="px"
     inkscape:window-width="1431"
     inkscape:window-height="1208"
     inkscape:window-x="160"
     inkscape:window-y="135"
     inkscape:window-maximized="0" />
  <metadata
     id="metadata1050">
    <rdf:RDF>
      <cc:Work
         rdf:about="">
        <dc:format>image/svg+xml</dc:format>
        <dc:type
           rdf:resource="http://purl.org/dc/dcmitype/StillImage" />
        <dc:title></dc:title>
      </cc:Work>
    </rdf:RDF>
  </metadata>
  <g
     inkscape:label="Layer 1"
     inkscape:groupmode="layer"
     id="layer1">
    <g
       id="g1045"
       inkscape:export-xdpi="747.30798"
       inkscape:export-ydpi="747.30798"
       transform="matrix(6.9457225,0,0,6.9457225,-457.91608,-697.49238)">
      <path
         d="m 71.949815,109.08249 h 0.325561 l 0.899167,-5.30715 h 2.232415 l 0.03617,-0.28422 h -2.22208 l 0.08785,-0.49093 q 0.08785,-0.42374 0.273884,-0.73897 0.191202,-0.31522 0.470254,-0.5271 0.279052,-0.2067 0.635618,-0.31005 0.356567,-0.10336 0.780312,-0.10852 0.21704,0 0.428913,0.0155 0.211873,0.0155 0.423745,0.0568 l 0.07751,-0.25838 q -0.232543,-0.0465 -0.470254,-0.0672 -0.232543,-0.0258 -0.470254,-0.0258 -0.485757,0 -0.894,0.12919 -0.403075,0.12403 -0.713132,0.36691 -0.315225,0.24804 -0.527098,0.61494 -0.211873,0.36691 -0.30489,0.85266 l -0.08785,0.49093 h -1.472773 l -0.04134,0.28422 h 1.462438 z"
         style="font-style:italic;font-variant:normal;font-weight:100;font-stretch:normal;font-size:10.5833px;line-height:1.25;font-family:'Roboto Mono';-inkscape-font-specification:'Roboto Mono Thin Italic';fill:#000000;fill-opacity:1;stroke:none;stroke-width:0.264583"
         id="path977" />
      <path
         d="m 78.962285,109.18584 q 0.589109,0 1.095537,-0.23254 0.511595,-0.23771 0.914669,-0.65629 l -0.191202,-0.14986 q -0.382404,0.35656 -0.837155,0.56327 -0.454751,0.2067 -0.987017,0.20154 -0.496092,-0.005 -0.868161,-0.22738 -0.366902,-0.22737 -0.578774,-0.58394 -0.263549,-0.44442 -0.315226,-0.92501 -0.04651,-0.48058 0.08785,-1.07486 h 4.242622 l 0.05168,-0.32556 q 0.06201,-0.44959 -0.02067,-0.8785 -0.07751,-0.42891 -0.299722,-0.76481 -0.227376,-0.33589 -0.58911,-0.53743 -0.361733,-0.20671 -0.857826,-0.20671 -0.377236,0 -0.713132,0.11369 -0.335896,0.10852 -0.630451,0.30489 -0.294554,0.19637 -0.5426,0.46509 -0.242879,0.26872 -0.434081,0.57877 -0.191202,0.31006 -0.320393,0.65112 -0.129191,0.3359 -0.191202,0.67696 l -0.04134,0.22738 q -0.07235,0.48059 0.0155,0.96118 0.08785,0.47542 0.310057,0.84749 0.253214,0.42374 0.682127,0.69763 0.434081,0.27388 1.018023,0.27388 z m 0.852658,-5.51902 q 0.418578,0 0.728635,0.18603 0.315226,0.18604 0.506428,0.48059 0.186034,0.29455 0.248046,0.67179 0.06718,0.37207 -0.01033,0.74931 l -0.0155,0.0672 H 77.33449 q 0.144694,-0.40308 0.372069,-0.79065 0.232544,-0.38757 0.547769,-0.69246 0.310057,-0.29972 0.702797,-0.48576 0.39274,-0.18603 0.857826,-0.18603 z"
         style="font-style:italic;font-variant:normal;font-weight:100;font-stretch:normal;font-size:10.5833px;line-height:1.25;font-family:'Roboto Mono';-inkscape-font-specification:'Roboto Mono Thin Italic';fill:#000000;fill-opacity:1;stroke:none;stroke-width:0.264583"
         id="path979" />
      <path
         d="M 83.514964,103.49112 H 83.26175 l -0.966346,5.59137 h 0.253214 l 0.7183,-4.07209 q 0.07751,-0.26355 0.21704,-0.50643 0.139526,-0.24288 0.335896,-0.42891 0.191202,-0.18604 0.43408,-0.29456 0.248046,-0.11368 0.537434,-0.11885 0.273884,0 0.439248,0.0982 0.165364,0.0982 0.248046,0.26355 0.07751,0.17053 0.08785,0.38757 0.01033,0.21188 -0.02584,0.43409 l -0.723467,4.23745 h 0.253213 l 0.759642,-4.30463 q 0.06718,-0.1757 0.21704,-0.39274 0.155029,-0.22221 0.372069,-0.39791 0.180867,-0.14469 0.403075,-0.23254 0.227375,-0.0879 0.50126,-0.0879 0.289387,-0.005 0.454751,0.10852 0.165364,0.11368 0.242878,0.29972 0.07235,0.18603 0.07235,0.41858 0,0.22737 -0.03617,0.45475 l -0.707965,4.1341 h 0.253214 l 0.723467,-4.1341 q 0.04651,-0.28939 0.02584,-0.56844 -0.0155,-0.28422 -0.124023,-0.50643 -0.113687,-0.21704 -0.330728,-0.3514 -0.21704,-0.13436 -0.568439,-0.13436 -0.475421,0.005 -0.862993,0.24288 -0.382405,0.23771 -0.645954,0.62012 -0.02067,-0.19637 -0.09302,-0.34623 -0.06718,-0.15503 -0.180867,-0.26355 -0.134358,-0.12919 -0.32556,-0.1912 -0.186035,-0.0672 -0.418578,-0.062 -0.470254,0.005 -0.82682,0.23255 -0.351399,0.22737 -0.599445,0.60461 z"
         style="font-style:italic;font-variant:normal;font-weight:100;font-stretch:normal;font-size:10.5833px;line-height:1.25;font-family:'Roboto Mono';-inkscape-font-specification:'Roboto Mono Thin Italic';fill:#000000;fill-opacity:1;stroke:none;stroke-width:0.264583"
         id="path981" />
      <path
         d="M 92.181074,101.98217 H 91.88652 l -0.263549,1.50895 H 90.026174 L 89.99,103.77534 h 1.586462 l -0.687294,3.96873 q -0.05168,0.37207 0.03617,0.64596 0.09302,0.26871 0.289387,0.44441 0.19637,0.1757 0.480589,0.25838 0.289387,0.0879 0.635618,0.093 0.206705,0.005 0.408243,-0.0103 0.206705,-0.0103 0.41341,-0.0465 l -0.02067,-0.26872 q -0.206706,0.0207 -0.413411,0.0362 -0.201537,0.0155 -0.41341,0.0103 -0.279052,-0.005 -0.506427,-0.0724 -0.227376,-0.0723 -0.377237,-0.21704 -0.155029,-0.13952 -0.222208,-0.35656 -0.06718,-0.21704 -0.02067,-0.51677 l 0.692462,-3.96873 h 1.95853 l 0.04134,-0.28422 h -1.953363 z"
         style="font-style:italic;font-variant:normal;font-weight:100;font-stretch:normal;font-size:10.5833px;line-height:1.25;font-family:'Roboto Mono';-inkscape-font-specification:'Roboto Mono Thin Italic';fill:#000000;fill-opacity:1;stroke:none;stroke-width:0.264583"
         id="path983" />
      <path
         d="m 95.493522,106.17828 -0.03617,0.21704 q -0.05168,0.33073 -0.03617,0.66663 0.02067,0.33589 0.10852,0.64595 0.08785,0.31006 0.242878,0.58394 0.160197,0.26872 0.39274,0.46509 0.227375,0.20154 0.532265,0.31522 0.30489,0.11369 0.687295,0.11369 0.573606,0 1.049028,-0.23771 0.480589,-0.24288 0.847491,-0.63562 0.361734,-0.39274 0.599445,-0.894 0.242886,-0.50126 0.335896,-1.02319 l 0.0362,-0.21704 q 0.0517,-0.33073 0.031,-0.66662 -0.0155,-0.3359 -0.0982,-0.64595 -0.0879,-0.31006 -0.248053,-0.57878 -0.155028,-0.27388 -0.382404,-0.47542 -0.232543,-0.19637 -0.537433,-0.31006 -0.30489,-0.11369 -0.687294,-0.11369 -0.573607,0 -1.054196,0.24288 -0.475422,0.23771 -0.837156,0.63045 -0.366901,0.39274 -0.60978,0.894 -0.237711,0.50126 -0.335896,1.02319 z m 0.242879,0.21704 0.04134,-0.21704 q 0.09302,-0.45992 0.310058,-0.9095 0.222207,-0.44958 0.552936,-0.80615 0.32556,-0.35657 0.754473,-0.57361 0.428913,-0.2222 0.935341,-0.2222 0.418577,0 0.728635,0.16536 0.310058,0.16536 0.52193,0.43408 0.289387,0.36173 0.382405,0.88367 0.09302,0.52193 0.01033,1.02835 l -0.04134,0.21704 q -0.09302,0.45992 -0.310058,0.90951 -0.21704,0.44958 -0.542601,0.80615 -0.330728,0.35656 -0.759641,0.57877 -0.423745,0.21704 -0.93534,0.21704 -0.511595,0 -0.857826,-0.22738 -0.346231,-0.23254 -0.542601,-0.59427 -0.201537,-0.36174 -0.263549,-0.80615 -0.05684,-0.44959 0.0155,-0.88367 z"
         style="font-style:italic;font-variant:normal;font-weight:100;font-stretch:normal;font-size:10.5833px;line-height:1.25;font-family:'Roboto Mono';-inkscape-font-specification:'Roboto Mono Thin Italic';fill:#000000;fill-opacity:1;stroke:none;stroke-width:0.264583"
         id="path985" />
      <path
         d="m 105.52905,107.64072 q -0.0517,0.28422 -0.23254,0.48059 -0.1757,0.19637 -0.42375,0.31006 -0.24804,0.12402 -0.52709,0.1757 -0.27906,0.0517 -0.5271,0.0517 -0.28422,0 -0.54777,-0.062 -0.26355,-0.062 -0.46509,-0.20154 -0.2067,-0.13435 -0.33589,-0.35139 -0.12403,-0.21704 -0.12403,-0.53227 h -0.60461 q -0.0103,0.43408 0.16537,0.74931 0.18086,0.31005 0.47542,0.51676 0.28939,0.2067 0.66145,0.30489 0.37207,0.10335 0.75965,0.10335 0.37206,0.005 0.7648,-0.0827 0.39791,-0.0879 0.73381,-0.27905 0.33073,-0.1912 0.5581,-0.49093 0.22738,-0.29972 0.27389,-0.72346 0.0362,-0.33073 -0.0878,-0.58911 -0.12403,-0.26355 -0.36691,-0.44959 -0.21704,-0.16019 -0.45991,-0.26355 -0.24288,-0.10852 -0.49093,-0.1912 -0.1912,-0.0672 -0.40307,-0.11885 -0.20671,-0.0569 -0.40825,-0.11886 -0.18086,-0.0568 -0.37207,-0.12919 -0.18603,-0.0724 -0.33072,-0.18087 -0.1447,-0.10852 -0.22221,-0.26871 -0.0775,-0.1602 -0.0413,-0.39274 0.0465,-0.27389 0.21187,-0.45992 0.16536,-0.1912 0.39791,-0.31006 0.23254,-0.11369 0.49609,-0.16536 0.26355,-0.0517 0.50643,-0.0517 0.25838,0.005 0.50642,0.0724 0.25322,0.0672 0.44442,0.2067 0.1912,0.1447 0.29972,0.35657 0.10852,0.21187 0.0982,0.50126 l 0.59944,0.005 q 0.0103,-0.42375 -0.14469,-0.73381 -0.15503,-0.31522 -0.42375,-0.52193 -0.26871,-0.2067 -0.62528,-0.31006 -0.35657,-0.10335 -0.73897,-0.10852 -0.3359,0 -0.68729,0.0775 -0.3514,0.0775 -0.66663,0.24288 -0.34106,0.1757 -0.59428,0.49092 -0.24804,0.31006 -0.27905,0.72864 -0.031,0.32556 0.0827,0.56327 0.11886,0.23771 0.32557,0.40824 0.18603,0.15503 0.42374,0.26872 0.23771,0.10852 0.48059,0.18086 0.1912,0.062 0.39274,0.11886 0.2067,0.0517 0.40307,0.11369 0.18087,0.0517 0.38241,0.12919 0.2067,0.0775 0.37207,0.19637 0.18086,0.13436 0.26871,0.31006 0.093,0.1757 0.0465,0.42374 z"
         style="font-style:italic;font-variant:normal;font-weight:300;font-stretch:normal;font-size:10.5833px;line-height:1.25;font-family:'Roboto Mono';-inkscape-font-specification:'Roboto Mono Light Italic';fill:#000000;fill-opacity:1;stroke:none;stroke-width:0.264583"
         id="path987" />
      <path
         d="m 109.93704,108.66391 q -0.31006,-0.005 -0.5426,-0.10335 -0.22738,-0.10335 -0.38757,-0.26872 -0.16537,-0.16536 -0.26355,-0.38757 -0.0982,-0.22221 -0.13953,-0.47025 -0.0517,-0.24805 -0.0517,-0.5116 0.005,-0.26872 0.0413,-0.52193 l 0.031,-0.21704 q 0.0465,-0.27905 0.13953,-0.5581 0.093,-0.27906 0.22737,-0.5271 0.1292,-0.25321 0.30489,-0.46509 0.18087,-0.21704 0.40308,-0.37723 0.22221,-0.16537 0.49609,-0.25322 0.27389,-0.093 0.59428,-0.0878 0.31522,0.005 0.56327,0.11886 0.25321,0.11369 0.42375,0.30489 0.16536,0.20154 0.24287,0.46508 0.0827,0.26355 0.0672,0.56844 l 0.57361,0.005 q 0.0207,-0.42891 -0.10335,-0.79065 -0.12403,-0.36173 -0.3669,-0.63045 -0.24805,-0.25838 -0.59945,-0.40824 -0.34623,-0.15503 -0.78031,-0.1602 -0.58394,-0.005 -1.06453,0.22738 -0.48059,0.23254 -0.83199,0.61495 -0.3514,0.3979 -0.58394,0.9095 -0.22738,0.50643 -0.31006,1.04386 l -0.031,0.21704 q -0.0362,0.31006 -0.0258,0.62012 0.0103,0.30489 0.0775,0.58911 0.0775,0.33072 0.22738,0.62011 0.15503,0.28422 0.3824,0.49609 0.23254,0.21188 0.54777,0.3359 0.31522,0.12402 0.72347,0.12402 0.41341,0.005 0.80615,-0.12402 0.39274,-0.13436 0.7183,-0.37724 0.32039,-0.23254 0.54777,-0.5736 0.22737,-0.34107 0.31005,-0.75448 l -0.57877,0.005 q -0.0879,0.29455 -0.25838,0.53743 -0.17053,0.24288 -0.40308,0.40824 -0.23771,0.1757 -0.5271,0.26872 -0.28938,0.0879 -0.59944,0.0879 z"
         style="font-style:italic;font-variant:normal;font-weight:300;font-stretch:normal;font-size:10.5833px;line-height:1.25;font-family:'Roboto Mono';-inkscape-font-specification:'Roboto Mono Light Italic';fill:#000000;fill-opacity:1;stroke:none;stroke-width:0.264583"
         id="path989" />
      <path
         d="m 114.08148,106.22479 -0.0258,0.16537 q -0.0465,0.35656 -0.0207,0.70796 0.031,0.3514 0.13436,0.66662 0.0827,0.26872 0.22737,0.50643 0.14469,0.23771 0.34106,0.42375 0.23772,0.2222 0.56328,0.35656 0.33072,0.12919 0.74413,0.13436 0.59428,0.005 1.08004,-0.22737 0.49092,-0.23771 0.85782,-0.63562 0.36174,-0.39274 0.59428,-0.89917 0.23771,-0.51159 0.32039,-1.0542 l 0.0258,-0.17053 q 0.0465,-0.3514 0.0155,-0.70279 -0.0258,-0.3514 -0.11886,-0.66663 -0.093,-0.28938 -0.24805,-0.5426 -0.15502,-0.25321 -0.3669,-0.44441 -0.23254,-0.20671 -0.55293,-0.32557 -0.3204,-0.12402 -0.7183,-0.12919 -0.58911,-0.005 -1.0697,0.22738 -0.48059,0.23254 -0.84233,0.60978 -0.37723,0.39791 -0.62011,0.91984 -0.23771,0.52193 -0.32039,1.08003 z m 0.57877,0.16537 0.0258,-0.16537 q 0.0724,-0.41858 0.25321,-0.83199 0.18087,-0.41341 0.45992,-0.74413 0.27905,-0.33073 0.66146,-0.53227 0.3824,-0.20671 0.85266,-0.20154 0.40824,0.0103 0.68729,0.1912 0.27905,0.18087 0.44958,0.46509 0.21188,0.3359 0.26872,0.77514 0.0568,0.43925 0,0.85266 l -0.0258,0.17053 q -0.062,0.37724 -0.24804,0.81132 -0.18604,0.42892 -0.46509,0.75448 -0.28422,0.33072 -0.66662,0.53226 -0.37724,0.20154 -0.8475,0.19637 -0.43408,-0.0103 -0.7338,-0.2067 -0.29455,-0.19637 -0.45475,-0.50643 -0.18087,-0.3359 -0.22737,-0.74931 -0.0465,-0.41857 0.0103,-0.81131 z"
         style="font-style:italic;font-variant:normal;font-weight:300;font-stretch:normal;font-size:10.5833px;line-height:1.25;font-family:'Roboto Mono';-inkscape-font-specification:'Roboto Mono Light Italic';fill:#000000;fill-opacity:1;stroke:none;stroke-width:0.264583"
         id="path991" />
      <path
         d="m 124.96967,106.32814 0.0103,-0.10852 q 0.0413,-0.31522 0.0362,-0.64595 0,-0.33073 -0.0568,-0.64595 -0.062,-0.31006 -0.1912,-0.58911 -0.12403,-0.27905 -0.32556,-0.49093 -0.20154,-0.2067 -0.49093,-0.33073 -0.28938,-0.12402 -0.67179,-0.12919 -0.29455,0 -0.56327,0.0724 -0.26872,0.0724 -0.5116,0.21187 -0.19636,0.10852 -0.37206,0.26355 -0.1757,0.14986 -0.32556,0.32556 l 0.13952,-0.76997 h -0.5581 l -1.33842,7.7411 h 0.59945 l 0.51159,-2.83186 q 0.10852,0.1757 0.25322,0.31006 0.14986,0.13436 0.32039,0.23254 0.21187,0.11886 0.45475,0.18087 0.24288,0.062 0.50126,0.062 0.3669,0.005 0.67696,-0.10335 0.31522,-0.10335 0.57877,-0.28939 0.29973,-0.2067 0.53227,-0.51159 0.23771,-0.30489 0.39791,-0.65629 0.14986,-0.30489 0.24287,-0.63562 0.0982,-0.3359 0.14987,-0.66146 z m -0.59428,-0.10852 -0.0155,0.10852 q -0.0413,0.26355 -0.12403,0.53744 -0.0827,0.27388 -0.20154,0.5271 -0.12919,0.26871 -0.30489,0.51159 -0.17569,0.23771 -0.40824,0.40824 -0.21187,0.16537 -0.47542,0.25838 -0.25838,0.093 -0.56844,0.0878 -0.23771,-0.005 -0.44958,-0.0672 -0.20671,-0.062 -0.37724,-0.18603 -0.17053,-0.11886 -0.29972,-0.28939 -0.12402,-0.1757 -0.1912,-0.40307 l 0.48059,-2.73368 q 0.12919,-0.21187 0.29455,-0.3979 0.17053,-0.18604 0.37207,-0.32556 0.21704,-0.15503 0.47025,-0.23772 0.25839,-0.0878 0.5426,-0.0878 0.30489,0.005 0.5271,0.10852 0.22221,0.0982 0.37207,0.26871 0.13436,0.15503 0.21704,0.35657 0.0827,0.19637 0.12919,0.42891 0.0517,0.27389 0.0465,0.56844 0,0.28939 -0.0362,0.5581 z"
         style="font-style:italic;font-variant:normal;font-weight:300;font-stretch:normal;font-size:10.5833px;line-height:1.25;font-family:'Roboto Mono';-inkscape-font-specification:'Roboto Mono Light Italic';fill:#000000;fill-opacity:1;stroke:none;stroke-width:0.264583"
         id="path993" />
      <path
         d="m 128.66452,109.18584 q 0.62011,0.005 1.17822,-0.24804 0.56327,-0.25322 0.95601,-0.72864 l -0.36174,-0.30489 q -0.35656,0.3514 -0.79064,0.5581 -0.43408,0.20671 -0.94568,0.19637 -0.43408,-0.0103 -0.75964,-0.20153 -0.32039,-0.19121 -0.50643,-0.50126 -0.21704,-0.3514 -0.27388,-0.75448 -0.0568,-0.40307 0.031,-0.87333 h 4.04626 l 0.062,-0.37723 q 0.062,-0.48059 -0.0155,-0.94051 -0.0775,-0.45992 -0.30489,-0.81649 -0.23254,-0.36173 -0.60978,-0.57877 -0.37723,-0.22221 -0.91467,-0.22738 -0.38757,-0.005 -0.73897,0.10852 -0.34623,0.10852 -0.64595,0.30489 -0.29972,0.19637 -0.54777,0.47026 -0.24804,0.26872 -0.43925,0.58394 -0.1912,0.32039 -0.31522,0.67179 -0.12402,0.34623 -0.1757,0.69763 l -0.031,0.22738 q -0.062,0.50642 0.0413,0.98701 0.10852,0.48059 0.35657,0.84749 0.26355,0.39791 0.69246,0.64596 0.43408,0.24804 1.01286,0.25321 z m 0.76997,-5.26581 q 0.36174,0.005 0.63045,0.16536 0.26872,0.15503 0.43925,0.40825 0.16537,0.25321 0.22221,0.57877 0.0568,0.32039 -0.005,0.65112 l -0.0155,0.0827 -3.4313,-0.005 q 0.12919,-0.35657 0.32556,-0.69763 0.19637,-0.34107 0.47025,-0.60462 0.26355,-0.26354 0.60461,-0.42374 0.34623,-0.16537 0.75964,-0.15503 z"
         style="font-style:italic;font-variant:normal;font-weight:300;font-stretch:normal;font-size:10.5833px;line-height:1.25;font-family:'Roboto Mono';-inkscape-font-specification:'Roboto Mono Light Italic';fill:#000000;fill-opacity:1;stroke:none;stroke-width:0.264583"
         id="path995" />
      <path
         d="m 133.26739,108.64841 q -0.0103,0.2067 0.12919,0.3514 0.13953,0.14469 0.35657,0.14986 0.21187,0 0.37207,-0.1447 0.16536,-0.14986 0.1757,-0.37206 0.0103,-0.22221 -0.13436,-0.37207 -0.14469,-0.15503 -0.36173,-0.14986 -0.22738,0 -0.38241,0.16536 -0.14986,0.16536 -0.15503,0.37207 z"
         style="font-style:italic;font-variant:normal;font-weight:300;font-stretch:normal;font-size:10.5833px;line-height:1.25;font-family:'Roboto Mono';-inkscape-font-specification:'Roboto Mono Light Italic';fill:#000000;fill-opacity:1;stroke:none;stroke-width:0.264583"
         id="path997" />
      <path
         style="color:#000000;font-style:normal;font-variant:normal;font-weight:normal;font-stretch:normal;font-size:medium;line-height:normal;font-family:sans-serif;font-variant-ligatures:normal;font-variant-position:normal;font-variant-caps:normal;font-variant-numeric:normal;font-variant-alternates:normal;font-variant-east-asian:normal;font-feature-settings:normal;font-variation-settings:normal;text-indent:0;text-align:start;text-decoration:none;text-decoration-line:none;text-decoration-style:solid;text-decoration-color:#000000;letter-spacing:normal;word-spacing:normal;text-transform:none;writing-mode:lr-tb;direction:ltr;text-orientation:mixed;dominant-baseline:auto;baseline-shift:baseline;text-anchor:start;white-space:normal;shape-padding:0;shape-margin:0;inline-size:0;clip-rule:nonzero;display:inline;overflow:visible;visibility:visible;opacity:1;isolation:auto;mix-blend-mode:normal;color-interpolation:sRGB;color-interpolation-filters:linearRGB;solid-color:#000000;solid-opacity:1;vector-effect:none;fill:#f48527;fill-opacity:1;fill-rule:nonzero;stroke:none;stroke-width:0.392;stroke-linecap:round;stroke-linejoin:miter;stroke-miterlimit:4;stroke-dasharray:none;stroke-dashoffset:0;stroke-opacity:1;color-rendering:auto;image-rendering:auto;shape-rendering:auto;text-rendering:auto;enable-background:accumulate;stop-color:#000000;stop-opacity:1"
         d="m 86.193359,104.05078 c -5.385755,-0.003 -10.83992,0.74236 -16.222656,2.25586 a 0.19599999,0.19599999 0 0 0 -0.134765,0.24024 0.19599999,0.19599999 0 0 0 0.240234,0.13671 c 10.697177,-3.00779 21.670741,-2.95959 31.822268,-0.0195 10.21392,2.95816 21.62447,3.2235 32.40429,0 a 0.19599999,0.19599999 0 0 0 0.13086,-0.24218 0.19599999,0.19599999 0 0 0 -0.24218,-0.13282 c -10.70138,3.20004 -22.03858,2.93625 -32.1836,-0.002 -5.111469,-1.48037 -10.428695,-2.23284 -15.814451,-2.23633 z"
         id="path1025" />
      <path
         d="m 105.52905,107.64072 q -0.0517,0.28422 -0.23254,0.48059 -0.1757,0.19637 -0.42375,0.31006 -0.24804,0.12402 -0.52709,0.1757 -0.27906,0.0517 -0.5271,0.0517 -0.28422,0 -0.54777,-0.062 -0.26355,-0.062 -0.46509,-0.20154 -0.2067,-0.13435 -0.33589,-0.35139 -0.12403,-0.21704 -0.12403,-0.53227 h -0.60461 q -0.0103,0.43408 0.16537,0.74931 0.18086,0.31005 0.47542,0.51676 0.28939,0.2067 0.66145,0.30489 0.37207,0.10335 0.75965,0.10335 0.37206,0.005 0.7648,-0.0827 0.39791,-0.0879 0.73381,-0.27905 0.33073,-0.1912 0.5581,-0.49093 0.22738,-0.29972 0.27389,-0.72346 0.0362,-0.33073 -0.0878,-0.58911 -0.12403,-0.26355 -0.36691,-0.44959 -0.21704,-0.16019 -0.45991,-0.26355 -0.24288,-0.10852 -0.49093,-0.1912 -0.1912,-0.0672 -0.40307,-0.11885 -0.20671,-0.0569 -0.40825,-0.11886 -0.18086,-0.0568 -0.37207,-0.12919 -0.18603,-0.0724 -0.33072,-0.18087 -0.1447,-0.10852 -0.22221,-0.26871 -0.0775,-0.1602 -0.0413,-0.39274 0.0465,-0.27389 0.21187,-0.45992 0.16536,-0.1912 0.39791,-0.31006 0.23254,-0.11369 0.49609,-0.16536 0.26355,-0.0517 0.50643,-0.0517 0.25838,0.005 0.50642,0.0724 0.25322,0.0672 0.44442,0.2067 0.1912,0.1447 0.29972,0.35657 0.10852,0.21187 0.0982,0.50126 l 0.59944,0.005 q 0.0103,-0.42375 -0.14469,-0.73381 -0.15503,-0.31522 -0.42375,-0.52193 -0.26871,-0.2067 -0.62528,-0.31006 -0.35657,-0.10335 -0.73897,-0.10852 -0.3359,0 -0.68729,0.0775 -0.3514,0.0775 -0.66663,0.24288 -0.34106,0.1757 -0.59428,0.49092 -0.24804,0.31006 -0.27905,0.72864 -0.031,0.32556 0.0827,0.56327 0.11886,0.23771 0.32557,0.40824 0.18603,0.15503 0.42374,0.26872 0.23771,0.10852 0.48059,0.18086 0.1912,0.062 0.39274,0.11886 0.2067,0.0517 0.40307,0.11369 0.18087,0.0517 0.38241,0.12919 0.2067,0.0775 0.37207,0.19637 0.18086,0.13436 0.26871,0.31006 0.093,0.1757 0.0465,0.42374 z"
         style="font-style:italic;font-variant:normal;font-weight:300;font-stretch:normal;font-size:10.5833px;line-height:1.25;font-family:'Roboto Mono';-inkscape-font-specification:'Roboto Mono Light Italic';fill:#000000;fill-opacity:1;stroke:none;stroke-width:0.264583"
         id="path1011" />
      <path
         d="m 109.93704,108.66391 q -0.31006,-0.005 -0.5426,-0.10335 -0.22738,-0.10335 -0.38757,-0.26872 -0.16537,-0.16536 -0.26355,-0.38757 -0.0982,-0.22221 -0.13953,-0.47025 -0.0517,-0.24805 -0.0517,-0.5116 0.005,-0.26872 0.0413,-0.52193 l 0.031,-0.21704 q 0.0465,-0.27905 0.13953,-0.5581 0.093,-0.27906 0.22737,-0.5271 0.1292,-0.25321 0.30489,-0.46509 0.18087,-0.21704 0.40308,-0.37723 0.22221,-0.16537 0.49609,-0.25322 0.27389,-0.093 0.59428,-0.0878 0.31522,0.005 0.56327,0.11886 0.25321,0.11369 0.42375,0.30489 0.16536,0.20154 0.24287,0.46508 0.0827,0.26355 0.0672,0.56844 l 0.57361,0.005 q 0.0207,-0.42891 -0.10335,-0.79065 -0.12403,-0.36173 -0.3669,-0.63045 -0.24805,-0.25838 -0.59945,-0.40824 -0.34623,-0.15503 -0.78031,-0.1602 -0.58394,-0.005 -1.06453,0.22738 -0.48059,0.23254 -0.83199,0.61495 -0.3514,0.3979 -0.58394,0.9095 -0.22738,0.50643 -0.31006,1.04386 l -0.031,0.21704 q -0.0362,0.31006 -0.0258,0.62012 0.0103,0.30489 0.0775,0.58911 0.0775,0.33072 0.22738,0.62011 0.15503,0.28422 0.3824,0.49609 0.23254,0.21188 0.54777,0.3359 0.31522,0.12402 0.72347,0.12402 0.41341,0.005 0.80615,-0.12402 0.39274,-0.13436 0.7183,-0.37724 0.32039,-0.23254 0.54777,-0.5736 0.22737,-0.34107 0.31005,-0.75448 l -0.57877,0.005 q -0.0879,0.29455 -0.25838,0.53743 -0.17053,0.24288 -0.40308,0.40824 -0.23771,0.1757 -0.5271,0.26872 -0.28938,0.0879 -0.59944,0.0879 z"
         style="font-style:italic;font-variant:normal;font-weight:300;font-stretch:normal;font-size:10.5833px;line-height:1.25;font-family:'Roboto Mono';-inkscape-font-specification:'Roboto Mono Light Italic';fill:#000000;fill-opacity:1;stroke:none;stroke-width:0.264583"
         id="path1013" />
      <path
         d="m 114.08148,106.22479 -0.0258,0.16537 q -0.0465,0.35656 -0.0207,0.70796 0.031,0.3514 0.13436,0.66662 0.0827,0.26872 0.22737,0.50643 0.14469,0.23771 0.34106,0.42375 0.23772,0.2222 0.56328,0.35656 0.33072,0.12919 0.74413,0.13436 0.59428,0.005 1.08004,-0.22737 0.49092,-0.23771 0.85782,-0.63562 0.36174,-0.39274 0.59428,-0.89917 0.23771,-0.51159 0.32039,-1.0542 l 0.0258,-0.17053 q 0.0465,-0.3514 0.0155,-0.70279 -0.0258,-0.3514 -0.11886,-0.66663 -0.093,-0.28938 -0.24805,-0.5426 -0.15502,-0.25321 -0.3669,-0.44441 -0.23254,-0.20671 -0.55293,-0.32557 -0.3204,-0.12402 -0.7183,-0.12919 -0.58911,-0.005 -1.0697,0.22738 -0.48059,0.23254 -0.84233,0.60978 -0.37723,0.39791 -0.62011,0.91984 -0.23771,0.52193 -0.32039,1.08003 z m 0.57877,0.16537 0.0258,-0.16537 q 0.0724,-0.41858 0.25321,-0.83199 0.18087,-0.41341 0.45992,-0.74413 0.27905,-0.33073 0.66146,-0.53227 0.3824,-0.20671 0.85266,-0.20154 0.40824,0.0103 0.68729,0.1912 0.27905,0.18087 0.44958,0.46509 0.21188,0.3359 0.26872,0.77514 0.0568,0.43925 0,0.85266 l -0.0258,0.17053 q -0.062,0.37724 -0.24804,0.81132 -0.18604,0.42892 -0.46509,0.75448 -0.28422,0.33072 -0.66662,0.53226 -0.37724,0.20154 -0.8475,0.19637 -0.43408,-0.0103 -0.7338,-0.2067 -0.29455,-0.19637 -0.45475,-0.50643 -0.18087,-0.3359 -0.22737,-0.74931 -0.0465,-0.41857 0.0103,-0.81131 z"
         style="font-style:italic;font-variant:normal;font-weight:300;font-stretch:normal;font-size:10.5833px;line-height:1.25;font-family:'Roboto Mono';-inkscape-font-specification:'Roboto Mono Light Italic';fill:#000000;fill-opacity:1;stroke:none;stroke-width:0.264583"
         id="path1015" />
      <path
         d="m 124.96967,106.32814 0.0103,-0.10852 q 0.0413,-0.31522 0.0362,-0.64595 0,-0.33073 -0.0568,-0.64595 -0.062,-0.31006 -0.1912,-0.58911 -0.12403,-0.27905 -0.32556,-0.49093 -0.20154,-0.2067 -0.49093,-0.33073 -0.28938,-0.12402 -0.67179,-0.12919 -0.29455,0 -0.56327,0.0724 -0.26872,0.0724 -0.5116,0.21187 -0.19636,0.10852 -0.37206,0.26355 -0.1757,0.14986 -0.32556,0.32556 l 0.13952,-0.76997 h -0.5581 l -1.33842,7.7411 h 0.59945 l 0.51159,-2.83186 q 0.10852,0.1757 0.25322,0.31006 0.14986,0.13436 0.32039,0.23254 0.21187,0.11886 0.45475,0.18087 0.24288,0.062 0.50126,0.062 0.3669,0.005 0.67696,-0.10335 0.31522,-0.10335 0.57877,-0.28939 0.29973,-0.2067 0.53227,-0.51159 0.23771,-0.30489 0.39791,-0.65629 0.14986,-0.30489 0.24287,-0.63562 0.0982,-0.3359 0.14987,-0.66146 z m -0.59428,-0.10852 -0.0155,0.10852 q -0.0413,0.26355 -0.12403,0.53744 -0.0827,0.27388 -0.20154,0.5271 -0.12919,0.26871 -0.30489,0.51159 -0.17569,0.23771 -0.40824,0.40824 -0.21187,0.16537 -0.47542,0.25838 -0.25838,0.093 -0.56844,0.0878 -0.23771,-0.005 -0.44958,-0.0672 -0.20671,-0.062 -0.37724,-0.18603 -0.17053,-0.11886 -0.29972,-0.28939 -0.12402,-0.1757 -0.1912,-0.40307 l 0.48059,-2.73368 q 0.12919,-0.21187 0.29455,-0.3979 0.17053,-0.18604 0.37207,-0.32556 0.21704,-0.15503 0.47025,-0.23772 0.25839,-0.0878 0.5426,-0.0878 0.30489,0.005 0.5271,0.10852 0.22221,0.0982 0.37207,0.26871 0.13436,0.15503 0.21704,0.35657 0.0827,0.19637 0.12919,0.42891 0.0517,0.27389 0.0465,0.56844 0,0.28939 -0.0362,0.5581 z"
         style="font-style:italic;font-variant:normal;font-weight:300;font-stretch:normal;font-size:10.5833px;line-height:1.25;font-family:'Roboto Mono';-inkscape-font-specification:'Roboto Mono Light Italic';fill:#000000;fill-opacity:1;stroke:none;stroke-width:0.264583"
         id="path1017" />
      <path
         d="m 128.66452,109.18584 q 0.62011,0.005 1.17822,-0.24804 0.56327,-0.25322 0.95601,-0.72864 l -0.36174,-0.30489 q -0.35656,0.3514 -0.79064,0.5581 -0.43408,0.20671 -0.94568,0.19637 -0.43408,-0.0103 -0.75964,-0.20153 -0.32039,-0.19121 -0.50643,-0.50126 -0.21704,-0.3514 -0.27388,-0.75448 -0.0568,-0.40307 0.031,-0.87333 h 4.04626 l 0.062,-0.37723 q 0.062,-0.48059 -0.0155,-0.94051 -0.0775,-0.45992 -0.30489,-0.81649 -0.23254,-0.36173 -0.60978,-0.57877 -0.37723,-0.22221 -0.91467,-0.22738 -0.38757,-0.005 -0.73897,0.10852 -0.34623,0.10852 -0.64595,0.30489 -0.29972,0.19637 -0.54777,0.47026 -0.24804,0.26872 -0.43925,0.58394 -0.1912,0.32039 -0.31522,0.67179 -0.12402,0.34623 -0.1757,0.69763 l -0.031,0.22738 q -0.062,0.50642 0.0413,0.98701 0.10852,0.48059 0.35657,0.84749 0.26355,0.39791 0.69246,0.64596 0.43408,0.24804 1.01286,0.25321 z m 0.76997,-5.26581 q 0.36174,0.005 0.63045,0.16536 0.26872,0.15503 0.43925,0.40825 0.16537,0.25321 0.22221,0.57877 0.0568,0.32039 -0.005,0.65112 l -0.0155,0.0827 -3.4313,-0.005 q 0.12919,-0.35657 0.32556,-0.69763 0.19637,-0.34107 0.47025,-0.60462 0.26355,-0.26354 0.60461,-0.42374 0.34623,-0.16537 0.75964,-0.15503 z"
         style="font-style:italic;font-variant:normal;font-weight:300;font-stretch:normal;font-size:10.5833px;line-height:1.25;font-family:'Roboto Mono';-inkscape-font-specification:'Roboto Mono Light Italic';fill:#000000;fill-opacity:1;stroke:none;stroke-width:0.264583"
         id="path1019" />
      <path
         d="m 133.26739,108.64841 q -0.0103,0.2067 0.12919,0.3514 0.13953,0.14469 0.35657,0.14986 0.21187,0 0.37207,-0.1447 0.16536,-0.14986 0.1757,-0.37206 0.0103,-0.22221 -0.13436,-0.37207 -0.14469,-0.15503 -0.36173,-0.14986 -0.22738,0 -0.38241,0.16536 -0.14986,0.16536 -0.15503,0.37207 z"
         style="font-style:italic;font-variant:normal;font-weight:300;font-stretch:normal;font-size:10.5833px;line-height:1.25;font-family:'Roboto Mono';-inkscape-font-specification:'Roboto Mono Light Italic';fill:#000000;fill-opacity:1;stroke:none;stroke-width:0.264583"
         id="path1021" />
    </g>
  </g>
</svg>
