<?xml version="1.0" encoding="UTF-8" standalone="no"?>
<svg
   xmlns:dc="http://purl.org/dc/elements/1.1/"
   xmlns:cc="http://creativecommons.org/ns#"
   xmlns:rdf="http://www.w3.org/1999/02/22-rdf-syntax-ns#"
   xmlns:svg="http://www.w3.org/2000/svg"
   xmlns="http://www.w3.org/2000/svg"
   width="10.431642mm"
   height="10.43164mm"
   viewBox="0 0 10.431642 10.43164"
   version="1.1"
   id="svg8">
  <defs
     id="defs2" />
  <metadata
     id="metadata5">
    <rdf:RDF>
      <cc:Work
         rdf:about="">
        <dc:format>image/svg+xml</dc:format>
        <dc:type
           rdf:resource="http://purl.org/dc/dcmitype/StillImage" />
        <dc:title></dc:title>
      </cc:Work>
    </rdf:RDF>
  </metadata>
  <g
     id="layer1"
     transform="translate(-0.11482896,-0.16321772)">
    <rect
       style="fill:#ffffff;stroke:none;stroke-width:0.338645;stroke-linecap:round"
       id="rect839"
       width="10.795945"
       height="10.795945"
       x="99.602028"
       y="143.10204" />
    <text
       xml:space="preserve"
       style="font-style:normal;font-weight:normal;font-size:9.25586px;line-height:1.25;font-family:sans-serif;fill:#000000;fill-opacity:1;stroke:none;stroke-width:0.231397"
       x="99.727524"
       y="151.96997"
       id="text835"><tspan
         id="tspan833"
         x="99.727524"
         y="151.96997"
         style="font-style:normal;font-variant:normal;font-weight:normal;font-stretch:normal;font-family:'Roboto Mono';-inkscape-font-specification:'Roboto Mono';letter-spacing:-0.837658px;stroke-width:0.231397"><tspan
           style="font-style:normal;font-variant:normal;font-weight:300;font-stretch:normal;font-family:'Roboto Mono';-inkscape-font-specification:'Roboto Mono Light';letter-spacing:-0.837658px;stroke-width:0.231397"
           id="tspan837">f</tspan><tspan
           style="font-style:normal;font-variant:normal;font-weight:500;font-stretch:normal;font-family:'Roboto Mono';-inkscape-font-specification:'Roboto Mono Medium';stroke-width:0.231397"
           id="tspan851">s</tspan></tspan></text>
    <rect
       style="fill:none;stroke:none;stroke-width:0.338645;stroke-linecap:round"
       id="rect853"
       width="10.795945"
       height="10.795945"
       x="99.602028"
       y="155.81404" />
    <path
       d="m 101.78781,164.77956 h 0.57606 l -0.009,-4.56664 h 2.00226 V 159.753 h -2.00226 v -0.39952 q 0,-0.37165 0.11149,-0.64574 0.11614,-0.27409 0.31126,-0.43669 0.19512,-0.15331 0.45527,-0.21834 0.26015,-0.0697 0.58999,-0.0697 0.24622,0 0.47386,0.0325 0.22763,0.0325 0.42275,0.0836 l 0.0697,-0.47385 q -0.12078,-0.0279 -0.24157,-0.0465 -0.11614,-0.0232 -0.23228,-0.0372 -0.13472,-0.0232 -0.27409,-0.0325 -0.13473,-0.0139 -0.27874,-0.0139 -0.40417,0 -0.76188,0.0976 -0.35307,0.0976 -0.61787,0.3159 -0.2648,0.22299 -0.42275,0.57606 -0.15795,0.35306 -0.1626,0.86873 v 0.39952 h -1.3751 v 0.45992 h 1.3751 z"
       style="font-style:normal;font-variant:normal;font-weight:300;font-stretch:normal;font-size:9.51422px;line-height:1.25;font-family:'Roboto Mono';-inkscape-font-specification:'Roboto Mono Light';letter-spacing:-0.861039px;fill:#000000;fill-opacity:1;stroke:none;stroke-width:0.237856"
       id="path863" />
    <path
       d="m 108.36323,163.37115 q 0,0.12079 -0.0558,0.22299 -0.0511,0.0976 -0.15795,0.18118 -0.13008,0.1022 -0.34842,0.1626 -0.2137,0.0604 -0.50173,0.0604 -0.2137,0 -0.42275,-0.0418 -0.20905,-0.0465 -0.37165,-0.14866 -0.16724,-0.0976 -0.27873,-0.25551 -0.10685,-0.1626 -0.12079,-0.39488 h -1.07778 q 0,0.31126 0.14866,0.61322 0.14866,0.30197 0.43668,0.53425 0.28339,0.23693 0.70149,0.38094 0.42275,0.14401 0.96629,0.14401 0.48779,0 0.88731,-0.11149 0.39953,-0.1115 0.68755,-0.31126 0.28339,-0.19976 0.43669,-0.4785 0.15795,-0.27873 0.15795,-0.61322 0,-0.34377 -0.14866,-0.59464 -0.14866,-0.25086 -0.4181,-0.43668 -0.26945,-0.17654 -0.65039,-0.29732 -0.38094,-0.12079 -0.84085,-0.20441 -0.32984,-0.0557 -0.54819,-0.12543 -0.2137,-0.0697 -0.33448,-0.15331 -0.13008,-0.079 -0.18118,-0.18118 -0.0511,-0.10684 -0.0511,-0.23692 0,-0.12543 0.0604,-0.23693 0.0604,-0.11614 0.18118,-0.19976 0.12079,-0.0929 0.30661,-0.14401 0.19047,-0.0558 0.44133,-0.0558 0.27409,0 0.4785,0.0743 0.20441,0.0697 0.33449,0.19047 0.11149,0.1022 0.16724,0.23228 0.0604,0.12543 0.0604,0.2648 h 1.1103 q 0,-0.33913 -0.14866,-0.6318 -0.14866,-0.29268 -0.42275,-0.50638 -0.27873,-0.21369 -0.67826,-0.33448 -0.39952,-0.12543 -0.90125,-0.12543 -0.4692,0 -0.85479,0.12078 -0.38094,0.12079 -0.65039,0.32984 -0.27409,0.20906 -0.42275,0.48779 -0.14401,0.27409 -0.14401,0.5807 0,0.32055 0.14401,0.56212 0.14402,0.24158 0.39953,0.41811 0.26015,0.18582 0.61786,0.3159 0.36236,0.13008 0.79905,0.21834 0.34842,0.065 0.5807,0.13937 0.23228,0.0743 0.3763,0.15795 0.13472,0.0929 0.19047,0.19512 0.0604,0.1022 0.0604,0.23228 z"
       style="font-style:normal;font-variant:normal;font-weight:500;font-stretch:normal;font-size:9.51422px;line-height:1.25;font-family:'Roboto Mono';-inkscape-font-specification:'Roboto Mono Medium';fill:#000000;fill-opacity:1;stroke:none;stroke-width:0.237856"
       id="path865" />
    <circle
       style="fill:#000000;stroke:none;stroke-width:0.474957;stroke-linecap:round"
       id="path876"
       cx="5.3313518"
       cy="2.9366281"
       r="0.87029636" />
    <path
       id="circle878"
       style="fill:#000000;stroke:none;stroke-width:0.391999;stroke-linecap:round"
       d="m 5.3315079,4.5719173 c -0.396711,0 -0.718312,0.3216 -0.718301,0.71831 2.1e-5,1.59681 0,1.39065 0,2.97552 -8e-6,0.39671 0.32159,0.71831 0.718301,0.7183 0.396711,10e-6 0.718309,-0.32159 0.718301,-0.7183 -0.0013,-1.58599 0,-1.3779 0,-2.97552 1.1e-5,-0.39671 -0.32159,-0.71831 -0.718301,-0.71831 z" />
    <path
       style="color:#000000;font-style:normal;font-variant:normal;font-weight:normal;font-stretch:normal;font-size:medium;line-height:normal;font-family:sans-serif;font-variant-ligatures:normal;font-variant-position:normal;font-variant-caps:normal;font-variant-numeric:normal;font-variant-alternates:normal;font-variant-east-asian:normal;font-feature-settings:normal;font-variation-settings:normal;text-indent:0;text-align:start;text-decoration:none;text-decoration-line:none;text-decoration-style:solid;text-decoration-color:#000000;letter-spacing:normal;word-spacing:normal;text-transform:none;writing-mode:lr-tb;direction:ltr;text-orientation:mixed;dominant-baseline:auto;baseline-shift:baseline;text-anchor:start;white-space:normal;shape-padding:0;shape-margin:0;inline-size:0;clip-rule:nonzero;display:inline;overflow:visible;visibility:visible;opacity:1;isolation:auto;mix-blend-mode:normal;color-interpolation:sRGB;color-interpolation-filters:linearRGB;solid-color:#000000;solid-opacity:1;vector-effect:none;fill:#000000;fill-opacity:1;fill-rule:nonzero;stroke:none;stroke-width:0.805203;stroke-linecap:round;stroke-linejoin:miter;stroke-miterlimit:4;stroke-dasharray:none;stroke-dashoffset:0;stroke-opacity:1;color-rendering:auto;image-rendering:auto;shape-rendering:auto;text-rendering:auto;enable-background:accumulate;stop-color:#000000;stop-opacity:1"
       d="m 5.3316259,0.16321772 c -2.875829,0 -5.21679294,2.34095958 -5.21679694,5.21678958 -2e-6,2.87584 2.34096394,5.2148497 5.21679694,5.2148497 2.8758335,0 5.2148471,-2.3390097 5.2148451,-5.2148497 -4e-6,-2.87583 -2.3390156,-5.21678958 -5.2148451,-5.21678958 z m 0,0.8066396 c 2.4406655,0 4.4101535,1.96948998 4.4101565,4.41014998 2e-6,2.44067 -1.969487,4.41016 -4.4101565,4.41016 -2.440669,0 -4.41015794,-1.96949 -4.41015594,-4.41016 3e-6,-2.44066 1.96949094,-4.41014998 4.41015594,-4.41014998 z"
       id="path908" />
  </g>
</svg>
